PathFileType	3	(X/Y/Z)	D:\Vicon Database\Healthy Subjects\S0040\Jan. 30, 2020\Static Calibration.trc
DataRate	CameraRate	NumFrames	NumMarkers	Units	OrigDataRate	OrigDataStartFrame	OrigNumFrames
100.0	100.0	4	69	mm	100.0	263	300	
Frame#	Time	sternum_cluster1			sternum_cluster2			sternum_cluster3			left_asis			right_asis			left_psis			right_psis			sacrum_cluster1			sacrum_cluster2			sacrum_cluster3			left_lat_femoral_epicondyle			left_med_femoral_epicondyle			left_anterior_thigh15			left_anterior_thigh25			left_anterior_thigh50			left_lateral_thigh25			left_lateral_thigh50			left_trochanter			left_thigh_cluster1			left_thigh_cluster2			left_thigh_cluster3			left_lateral_tibial_condyle			left_medial_tibial_condyle			left_fibular_head			left_tibial_tuberosity			left_anterior_shank30			left_lateral_malleolus			left_medial_malleolus			left_shank_cluster1			left_shank_cluster2			left_shank_cluster3			left_heel			left_metatarsal2			left_metatarsal5			left_metatarsal1			left_toe_tip			left_foot_cluster1			left_foot_cluster2			left_foot_cluster3			right_lat_femoral_epicondyle			right_med_femoral_epicondyle			right_anterior_thigh15			right_anterior_thigh25			right_anterior_thigh50			right_lateral_thigh25			right_lateral_thigh50			right_trochanter			right_thigh_cluster1			right_thigh_cluster2			right_thigh_cluster3			right_lateral_tibial_condyle			right_medial_tibial_condyle			right_fibular_head			right_tibial_tuberosity			right_lateral_distal_shank			right_anterior_shank30			right_lateral_malleolus			right_medial_malleolus			right_shank_cluster1			right_shank_cluster2			right_shank_cluster3			right_heel			right_metatarsal2			right_metatarsal5			right_metatarsal1			right_toe_tip			right_foot_cluster1			right_foot_cluster2			right_foot_cluster3			
		X1	Y1	Z1	X2	Y2	Z2	X3	Y3	Z3	X4	Y4	Z4	X5	Y5	Z5	X6	Y6	Z6	X7	Y7	Z7	X8	Y8	Z8	X9	Y9	Z9	X10	Y10	Z10	X11	Y11	Z11	X12	Y12	Z12	X13	Y13	Z13	X14	Y14	Z14	X15	Y15	Z15	X16	Y16	Z16	X17	Y17	Z17	X18	Y18	Z18	X19	Y19	Z19	X20	Y20	Z20	X21	Y21	Z21	X22	Y22	Z22	X23	Y23	Z23	X24	Y24	Z24	X25	Y25	Z25	X26	Y26	Z26	X27	Y27	Z27	X28	Y28	Z28	X29	Y29	Z29	X30	Y30	Z30	X31	Y31	Z31	X32	Y32	Z32	X33	Y33	Z33	X34	Y34	Z34	X35	Y35	Z35	X36	Y36	Z36	X37	Y37	Z37	X38	Y38	Z38	X39	Y39	Z39	X40	Y40	Z40	X41	Y41	Z41	X42	Y42	Z42	X43	Y43	Z43	X44	Y44	Z44	X45	Y45	Z45	X46	Y46	Z46	X47	Y47	Z47	X48	Y48	Z48	X49	Y49	Z49	X50	Y50	Z50	X51	Y51	Z51	X52	Y52	Z52	X53	Y53	Z53	X54	Y54	Z54	X55	Y55	Z55	X56	Y56	Z56	X57	Y57	Z57	X58	Y58	Z58	X59	Y59	Z59	X60	Y60	Z60	X61	Y61	Z61	X62	Y62	Z62	X63	Y63	Z63	X64	Y64	Z64	X65	Y65	Z65	X66	Y66	Z66	X67	Y67	Z67	X68	Y68	Z68	X69	Y69	Z69	
263	2.62	786.42847	1473.4207	-232.99945	773.04639	1446.1643	-225.38551	776.15393	1449.3975	-263.24072	756.99438	1079.04	-123.26733	767.66101	1086.325	-371.52899	924.87555	1090.8827	-166.6469	933.22729	1096.266	-283.7366	942.56354	1143.5293	-228.41322	947.96161	1118.491	-240.94452	948.06909	1111.4741	-201.91023	873.89587	553.2876	-80.167992	859.66107	541.4483	-215.56305	767.75775	614.90942	-138.12924	736.24957	700.29364	-129.22276	722.51312	841.21875	-115.64964	848.21313	707.11371	-63.808769	819.74219	850.5766	-43.697735	820.14923	972.33405	-57.385284	824.23401	808.83289	-38.702618	830.9046	779.60364	-39.616886	793.30072	785.01727	-39.310764	879.4071	500.55551	-76.746857	872.5462	485.99683	-200.07462	880.04913	472.34323	-71.646278	822.8454	461.7066	-124.87484	820.6546	216.35947	-123.26586	859.09674	98.594749	-94.123161	841.87378	108.6273	-172.06403	816.68402	412.99475	-148.95956	809.97485	386.30609	-139.08875	822.69836	383.60208	-175.68002	926.92078	61.321781	-133.51563	708.9762	69.123306	-116.25067	735.42206	57.380672	-77.54184	713.76855	60.609192	-159.77707	657.41052	61.100372	-110.58746	772.28284	117.32398	-115.13193	748.0069	102.99266	-103.36758	741.88702	108.1435	-141.10428	854.26868	538.44275	-386.93112	848.80487	539.52936	-252.49335	763.57666	615.49976	-328.73239	735.27966	697.48486	-326.29651	722.72681	830.50604	-339.03696	834.75946	698.38062	-411.14285	821.08447	844.0293	-436.91074	824.91272	973.52881	-426.71078	833.24261	793.39221	-441.80496	823.45569	766.3927	-438.00085	862.39252	767.30817	-434.60071	865.28625	499.15585	-386.08331	851.8277	484.70755	-266.9512	872.59338	472.56107	-390.27655	816.51477	460.21915	-346.41687	875.07312	202.76639	-386.6965	828.716	217.06801	-342.1105	870.56744	98.135056	-374.37408	855.27905	107.76477	-294.01849	824.25702	397.96774	-292.74252	828.26147	369.41528	-286.56683	805.78296	369.44736	-316.14575	940.64355	61.801792	-340.50201	721.76105	68.959938	-341.91803	756.0603	55.644032	-392.09116	731.54675	51.578602	-300.62064	670.97565	56.528328	-351.56891	779.49713	115.67781	-337.3176	754.82825	102.0415	-329.54739	755.71179	107.01354	-366.73761
264	2.63	786.38226	1473.437	-232.95546	773.0274	1446.1427	-225.33444	776.11353	1449.3828	-263.18329	757.0412	1079.0397	-123.22573	767.74207	1086.3025	-371.49725	924.94183	1090.931	-166.57326	933.26697	1096.2064	-283.79654	942.55725	1143.4563	-228.58879	947.95789	1118.4011	-240.99371	948.12213	1111.4426	-201.8622	873.96802	553.22498	-80.179153	859.49841	541.47961	-215.57373	767.7691	614.89587	-138.11952	736.22711	700.31708	-129.2027	722.52466	841.23474	-115.62097	848.20819	707.09528	-63.794872	819.76752	850.54932	-43.694492	820.15387	972.33765	-57.346249	824.49847	808.64697	-38.896252	830.94843	779.59192	-39.620117	793.27777	785.03497	-39.279484	879.43201	500.54431	-76.750557	872.58527	485.92148	-200.1088	880.03802	472.36368	-71.636681	822.83905	461.72131	-124.87109	820.68219	216.36218	-123.25684	859.12714	98.563759	-94.113792	841.90924	108.58717	-172.08083	816.68286	412.99341	-148.93971	809.96045	386.31897	-139.07782	822.70166	383.59122	-175.69205	926.9621	61.33255	-133.50233	709.02124	69.055885	-116.24182	735.42871	57.356525	-77.470604	713.80164	60.575809	-159.7762	657.41675	61.072697	-110.58768	772.26611	117.35234	-115.11205	748.04279	102.95477	-103.36279	741.91071	108.11031	-141.08078	854.31848	538.39429	-386.93088	848.78345	539.52478	-252.46783	763.56873	615.50897	-328.69955	735.27747	697.50812	-326.26019	722.73889	830.53717	-338.9931	834.7735	698.354	-411.13879	821.13074	844.00641	-436.89651	824.90509	973.53003	-426.69321	833.26508	793.35425	-441.77917	823.5296	766.34143	-437.98825	862.39862	767.26068	-434.56796	865.35474	499.11734	-386.05222	851.80426	484.71259	-266.90924	872.5896	472.52469	-390.27051	816.54309	460.20502	-346.3898	875.65393	202.7076	-386.31357	828.7597	217.05104	-342.09949	870.64532	98.075775	-374.34476	855.22894	107.81174	-293.98694	824.25751	397.95267	-292.71661	828.24811	369.4053	-286.55875	805.7616	369.44748	-316.11688	940.79791	61.713398	-340.40775	721.81488	68.918312	-341.93234	756.09625	55.627396	-392.09024	731.54779	51.562977	-300.57562	671.01013	56.504143	-351.55786	779.53235	115.69376	-337.33063	754.98438	101.91647	-329.56219	755.77704	106.97775	-366.76059
265	2.64	786.36755	1473.4221	-232.92587	773.00635	1446.139	-225.30463	776.06146	1449.3807	-263.15479	757.08221	1079.0638	-123.1961	767.74744	1086.3333	-371.48431	924.98785	1090.8744	-166.65813	933.38391	1096.2061	-283.74799	942.64435	1143.5043	-228.48424	948.00226	1118.4602	-240.97327	948.16248	1111.4158	-201.88338	873.91675	553.33392	-80.147522	859.59979	541.42963	-215.55714	767.74847	614.91071	-138.12556	736.22357	700.32874	-129.20123	722.51752	841.24664	-115.5956	848.21167	707.06665	-63.791527	819.78271	850.54456	-43.679279	820.20886	972.32544	-57.340012	824.49701	808.65515	-38.916821	830.93707	779.56378	-39.620281	793.31976	785.00372	-39.295502	879.44653	500.55325	-76.777847	872.58203	485.97366	-200.1161	880.06238	472.38223	-71.64595	822.84778	461.71631	-124.87469	820.71051	216.36111	-123.25557	859.14911	98.561661	-94.152039	841.90472	108.61469	-172.06767	816.85364	412.87891	-148.99667	809.98273	386.33875	-139.06326	822.71265	383.60199	-175.68137	926.98328	61.321198	-133.52916	709.02972	69.063225	-116.23951	735.44629	57.358036	-77.486755	713.82617	60.555759	-159.77475	657.45789	61.066147	-110.57261	772.31244	117.31752	-115.11932	748.04559	102.95948	-103.29523	741.91101	108.12695	-141.07016	854.32556	538.40942	-386.88907	848.79126	539.52429	-252.47223	763.57007	615.52429	-328.67242	735.28967	697.51141	-326.21588	722.74768	830.55084	-338.96976	834.69635	698.37579	-411.16437	821.14612	843.98322	-436.87097	824.98804	973.51813	-426.66788	833.31055	793.36145	-441.75049	823.56024	766.34521	-437.97964	862.37866	767.2561	-434.61472	865.32404	499.13193	-386.02948	851.79828	484.7095	-266.89777	872.84088	472.5665	-390.40494	816.51563	460.20764	-346.36331	875.12592	202.73822	-386.66656	828.76581	217.05405	-342.08963	870.6347	98.10421	-374.35196	855.85266	107.21617	-294.63367	824.25793	397.95047	-292.70828	828.25073	369.40567	-286.53595	805.77698	369.43954	-316.11682	940.70007	61.763153	-340.54706	721.8205	68.921761	-341.91888	756.13214	55.636108	-392.09857	731.57959	51.575813	-300.60971	671.02942	56.49469	-351.54361	779.55859	115.66702	-337.32315	755.00067	101.90584	-329.57349	755.77252	106.99561	-366.74472
266	2.65	786.27557	1473.4344	-232.88258	772.94409	1446.1339	-225.27931	776.00696	1449.3732	-263.13589	757.08643	1079.0675	-123.18473	767.77246	1086.3372	-371.44821	924.97522	1090.9089	-166.6554	933.3764	1096.2875	-283.66547	942.63953	1143.5179	-228.40407	948.03552	1118.51	-240.88898	948.15833	1111.4802	-201.85304	873.85358	553.32977	-80.144585	859.55121	541.48505	-215.58411	767.73511	614.90118	-138.1559	736.18738	700.3382	-129.22359	722.51666	841.2724	-115.61073	848.13361	707.09033	-63.755238	819.75946	850.55389	-43.675594	820.21466	972.33362	-57.315067	824.46124	808.62378	-38.89698	830.87518	779.61017	-39.589775	793.21539	785.08344	-39.276997	879.40259	500.56528	-76.790314	872.55621	486.00705	-200.11952	880.04523	472.39325	-71.692596	822.80768	461.74179	-124.87914	820.6698	216.38039	-123.25951	859.1344	98.581726	-94.139778	841.86176	108.63841	-172.06248	816.62897	413.03214	-148.97208	809.94415	386.35818	-139.09003	822.61774	383.65314	-175.7057	926.9342	61.407684	-133.49501	708.97992	69.099472	-116.25488	735.46179	57.308174	-77.539345	713.7616	60.600769	-159.77382	657.40009	61.069839	-110.58505	772.26672	117.3369	-115.12022	747.99365	102.98768	-103.35617	741.88	108.15395	-141.08546	854.21021	538.45343	-386.87473	848.75201	539.54443	-252.44534	763.53497	615.53748	-328.66043	735.25311	697.52911	-326.2146	722.71405	830.56531	-338.94858	834.63306	698.39606	-411.10995	820.69989	844.23523	-437.46631	824.93585	973.55823	-426.66849	833.23956	793.41583	-441.73969	823.44073	766.33502	-437.96628	862.24213	767.17993	-434.55685	865.24908	499.15668	-386.01004	851.7514	484.7153	-266.88303	872.52899	472.56763	-390.21899	816.4549	460.24106	-346.35614	875.09711	202.79437	-386.63474	828.67603	217.11072	-342.0809	870.60645	98.149231	-374.35831	855.26373	107.79219	-294.0097	824.20477	397.98389	-292.7016	828.21942	369.42227	-286.52539	805.75238	369.44232	-316.10648	940.76318	61.781673	-340.42017	721.76196	68.974976	-341.92719	756.0896	55.663166	-392.08316	731.53937	51.584625	-300.61368	670.97913	56.531116	-351.55515	779.50067	115.69044	-337.31778	754.95605	101.93899	-329.57797	755.73181	107.01964	-366.74216
